<!DOCTYPE svg PUBLIC "-//W3C//DTD SVG 1.1//EN" "http://www.w3.org/Graphics/SVG/1.1/DTD/svg11.dtd">
<!-- Uploaded to: SVG Repo, www.svgrepo.com, Transformed by: SVG Repo Mixer Tools -->
<svg width="800px" height="800px" viewBox="-2.4 -2.4 28.80 28.80" fill="none" xmlns="http://www.w3.org/2000/svg">
<g id="SVGRepo_bgCarrier" stroke-width="0" transform="translate(0,0), scale(1)">
<path transform="translate(-2.4, -2.4), scale(0.8999999999999999)" d="M16,25.01525468296475C18.496529720680087,25.092722777797142,21.179861303307185,26.035372640500295,23.258052341905326,24.649809953702494C25.427604060971884,23.203335662751652,26.31117364928077,20.464912864755398,26.693710302903263,17.885589650281936C27.06699001645824,15.368683043955759,26.49943464330727,12.872423354229635,25.34070545248195,10.607141192588543C24.120603545429848,8.221877140113268,22.64410967892874,5.536362663815914,20.044766323099953,4.8870958603123835C17.509965468894663,4.253950552887947,15.468927250691703,6.990147046702192,12.906753538270255,7.501375193589615C9.466431942696923,8.1878193739647,5.16927281061666,5.815592658116193,2.734290517111237,8.341039059062792C0.333803820729051,10.830708287487134,1.1111636230140354,15.188845749975908,2.4004962345681164,18.397959438092C3.538002799356608,21.22918223868859,6.366689725295775,22.87579616190618,9.110319574182412,24.210801399294112C11.25405908663695,25.2539098484472,13.617096963460888,24.941312459532806,16,25.01525468296475" fill="#CD7F32FF" strokewidth="0"/>
</g>
<g id="SVGRepo_tracerCarrier" stroke-linecap="round" stroke-linejoin="round" stroke="#FFD700FFCCCCCC" stroke-width="0.048"/>
<g id="SVGRepo_iconCarrier"> <path opacity="0.1" fill-rule="evenodd" clip-rule="evenodd" d="M5 5H19C20.1046 5 21 5.89543 21 7V17C21 18.1046 20.1046 19 19 19H5C3.89543 19 3 18.1046 3 17V7C3 5.89543 3.89543 5 5 5ZM10.75 13.25V15C10.75 15.1381 10.8619 15.25 11 15.25C11.1381 15.25 11.25 15.1381 11.25 15V11C11.25 9.75736 10.2426 8.75 9 8.75C7.75736 8.75 6.75 9.75736 6.75 11V15C6.75 15.1381 6.86193 15.25 7 15.25C7.13807 15.25 7.25 15.1381 7.25 15V13.25H10.75ZM17.25 9C17.25 8.86193 17.1381 8.75 17 8.75C16.8619 8.75 16.75 8.86193 16.75 9V11.75H15.5C14.9322 11.75 14.4879 11.9654 14.1882 12.3027C13.8925 12.6353 13.75 13.0717 13.75 13.5C13.75 13.9283 13.8925 14.3647 14.1881 14.6973C14.4879 15.0346 14.9322 15.25 15.5 15.25H17C17.1381 15.25 17.25 15.1381 17.25 15V12.0033L17.25 12L17.25 11.9967V9Z" fill="#FFD700FF"/> <path d="M5 5H19C20.1046 5 21 5.89543 21 7V17C21 18.1046 20.1046 19 19 19H5C3.89543 19 3 18.1046 3 17V7C3 5.89543 3.89543 5 5 5Z" stroke="#FFD700FF" stroke-width="2" stroke-linecap="round" stroke-linejoin="round"/> <path d="M7 15V11C7 9.89543 7.89543 9 9 9V9C10.1046 9 11 9.89543 11 11V15" stroke="#FFD700FF" stroke-width="2" stroke-linecap="round" stroke-linejoin="round"/> <path d="M17 9V15" stroke="#FFD700FF" stroke-width="2" stroke-linecap="round" stroke-linejoin="round"/> <path d="M17 12H15.5C13.5 12 13.5 15 15.5 15H17" stroke="#FFD700FF" stroke-width="2" stroke-linecap="round" stroke-linejoin="round"/> <path d="M7 13H11" stroke="#FFD700FF" stroke-width="2" stroke-linecap="round" stroke-linejoin="round"/> </g>
</svg>