<svg width="24" height="24" viewBox="0 0 24 24" fill="none" xmlns="http://www.w3.org/2000/svg">
    <path d="M20.4727 19.9453H20.2617V14.8477C20.2617 14.6479 20.1489 14.4653 19.9702 14.376L18.1523 13.4671V12.0352C18.1523 11.8354 18.0395 11.6528 17.8608 11.5635L15.3398 10.303V5.63672C15.3398 5.34548 15.1037 5.10938 14.8125 5.10938H14.6367V3.52734C14.6367 3.23611 14.4006 3 14.1094 3H9.89062C9.59939 3 9.36328 3.23611 9.36328 3.52734V5.10938H9.1875C8.89627 5.10938 8.66016 5.34548 8.66016 5.63672V7.64062H6.375C6.08377 7.64062 5.84766 7.87673 5.84766 8.16797V15.9023H4.26562C3.97439 15.9023 3.73828 16.1385 3.73828 16.4297V19.9453H3.52734C3.23611 19.9453 3 20.1814 3 20.4727C3 20.7639 3.23611 21 3.52734 21H20.4727C20.7639 21 21 20.7639 21 20.4727C21 20.1814 20.7639 19.9453 20.4727 19.9453ZM10.418 4.05469H13.582V5.10938H10.418V4.05469ZM9.71484 6.16406H14.2852V9.77566L13.6421 9.45412C13.4786 9.37239 13.2845 9.38114 13.129 9.47719C12.9735 9.5733 12.8789 9.74304 12.8789 9.92578V19.9453H11.1211V8.16797C11.1211 7.87673 10.885 7.64062 10.5938 7.64062H9.71484V6.16406ZM6.90234 8.69531H10.0664V19.9453H9.01172V16.4297C9.01172 16.1385 8.77561 15.9023 8.48438 15.9023H6.90234V8.69531ZM6.90234 19.9453V18.7148C6.90234 18.4236 6.66623 18.1875 6.375 18.1875C6.08377 18.1875 5.84766 18.4236 5.84766 18.7148V19.9453H4.79297V16.957H7.95703V19.9453H6.90234ZM13.9336 10.7791L17.0977 12.3611V19.9453H13.9336V10.7791ZM18.1523 19.9453V14.6462L19.207 15.1736V19.9453H18.1523Z" fill="#E87329" stroke="#E87329" stroke-width="0.3"/>
    <path d="M15.5156 13.2656C15.2244 13.2656 14.9883 13.5017 14.9883 13.793V14.8477C14.9883 15.1389 15.2244 15.375 15.5156 15.375C15.8069 15.375 16.043 15.1389 16.043 14.8477V13.793C16.043 13.5017 15.8069 13.2656 15.5156 13.2656Z" fill="#E87329" stroke="#E87329" stroke-width="0.3"/>
    <path d="M8.48438 11.8594C8.77561 11.8594 9.01172 11.6233 9.01172 11.332V10.2773C9.01172 9.98611 8.77561 9.75 8.48438 9.75C8.19314 9.75 7.95703 9.98611 7.95703 10.2773V11.332C7.95703 11.6233 8.19314 11.8594 8.48438 11.8594Z" fill="#E87329" stroke="#E87329" stroke-width="0.3"/>
    <path d="M9.01172 14.4961V13.4414C9.01172 13.1502 8.77561 12.9141 8.48438 12.9141C8.19314 12.9141 7.95703 13.1502 7.95703 13.4414V14.4961C7.95703 14.7873 8.19314 15.0234 8.48438 15.0234C8.77561 15.0234 9.01172 14.7873 9.01172 14.4961Z" fill="#E87329" stroke="#E87329" stroke-width="0.3"/>
    <path d="M15.5156 16.4297C15.2244 16.4297 14.9883 16.6658 14.9883 16.957V18.0117C14.9883 18.303 15.2244 18.5391 15.5156 18.5391C15.8069 18.5391 16.043 18.303 16.043 18.0117V16.957C16.043 16.6658 15.8069 16.4297 15.5156 16.4297Z" fill="#E87329" stroke="#E87329" stroke-width="0.3"/>
</svg>
