<svg width="24" height="24" viewBox="0 0 24 24" fill="none" xmlns="http://www.w3.org/2000/svg">
    <path d="M20.9768 19.1995L19.1109 12.6604C19.0369 12.4009 18.7998 12.2221 18.5301 12.2221H14.2393C15.1001 11.0602 15.9381 9.52908 15.9381 7.97029C15.9381 5.79804 14.1715 4.03076 12.0001 4.03076C9.82853 4.03076 8.06192 5.79804 8.06192 7.97029C8.06192 9.52914 8.89986 11.0602 9.76077 12.2221H5.46985C5.20015 12.2221 4.96312 12.4009 4.88906 12.6604L3.02317 19.1995C2.97123 19.3817 3.00766 19.5778 3.12184 19.7291C3.23596 19.8803 3.41445 19.9692 3.60396 19.9692H20.396C20.5855 19.9692 20.764 19.8803 20.8781 19.7291C20.9923 19.5778 21.0287 19.3817 20.9768 19.1995ZM12.0001 5.23871C13.5054 5.23871 14.7301 6.4641 14.7301 7.97023C14.7301 9.99133 12.8438 12.1195 12.0001 12.9704C11.1562 12.1195 9.26986 9.99133 9.26986 7.97023C9.26986 6.4641 10.4947 5.23871 12.0001 5.23871ZM10.7647 13.4301C11.2176 13.9197 11.5573 14.2223 11.6008 14.2607C11.715 14.3611 11.8574 14.4114 12.0001 14.4114C12.1427 14.4114 12.2852 14.3611 12.3993 14.2607C12.4428 14.2223 12.7825 13.9197 13.2354 13.4301H18.0744L18.2423 14.0184L15.9059 15.9654L5.73015 14.1153L5.92573 13.4301H10.7647ZM7.62101 18.7612V15.6869L14.6964 16.9734L12.5509 18.7612H7.62101ZM5.39706 15.2826L6.413 15.4672V18.7613H4.40445L5.39706 15.2826ZM14.4378 18.7612L18.6047 15.2888L19.5955 18.7612H14.4378Z" fill="#E87329"/>
    <path d="M13.625 7.97031C13.625 7.06964 12.896 6.33691 12 6.33691C11.104 6.33691 10.375 7.06964 10.375 7.97031C10.375 8.87086 11.104 9.60371 12 9.60371C12.896 9.60371 13.625 8.87086 13.625 7.97031ZM11.5831 7.97031C11.5831 7.73571 11.7702 7.54486 12.0001 7.54486C12.23 7.54486 12.417 7.73565 12.417 7.97031C12.417 8.20498 12.23 8.39577 12.0001 8.39577C11.7702 8.39571 11.5831 8.20492 11.5831 7.97031Z" fill="#E87329"/>
</svg>
